<svg xmlns="http://www.w3.org/2000/svg" viewBox="0 0 620 450" role="img" aria-label="NeuroDance logo mark">
  <rect width="620" height="450" fill="none"/>
  <path d="M78 315C24 231 68 133 169 85c83-40 203-50 320-24 41 9 84 25 111 57 16 19 22 41 9 48-15 8-65-9-112-21-85-22-174-22-244 25-52 35-82 87-113 139-19 32-42 50-62 6z" fill="#ffc21a"/>
  <path d="M250 71c115-23 253 0 330 72 23 21 35 50 21 59-17 11-72-14-122-24-93-19-188-3-268 45-57 35-93 75-131 125-20 26-55 37-68 16-13-22 4-88 52-151 45-59 102-119 186-142z" fill="#f2632b" opacity=".98"/>
  <path d="M167 306c-17-65 43-132 135-158 101-29 218-4 309 45-87 13-171 46-252 90-69 37-132 70-187 78-27 4-38-12-5-55z" fill="#8ac21a"/>
  <path d="M318 362c60-10 105-36 147-68 39-30 87-55 113-41 28 16 15 78-23 119-62 68-160 76-237-10z" fill="#27aadd"/>
</svg>
